<svg width="59" height="55" viewBox="0 0 59 55" fill="none" xmlns="http://www.w3.org/2000/svg">
<path d="M17.2083 16.344V9.15134C17.2083 7.02395 17.2083 5.96026 17.8907 5.36268C18.5732 4.7651 19.6276 4.90552 21.7363 5.18635L46.417 8.47312C48.8983 8.80356 50.139 8.96878 50.882 9.81729C51.625 10.6658 51.625 11.9174 51.625 14.4206V40.5794C51.625 43.0826 51.625 44.3342 50.882 45.1827C50.139 46.0312 48.8983 46.1965 46.417 46.5269L21.7363 49.8137C19.6276 50.0945 18.5732 50.2349 17.8907 49.6373C17.2083 49.0398 17.2083 47.9761 17.2083 45.8487V39.1095" stroke="#C7CDE0" stroke-width="2"/>
<path d="M39.3333 27.5L40.0922 26.8487L40.6511 27.5L40.0922 28.1512L39.3333 27.5ZM9.83331 28.5C9.28103 28.5 8.83331 28.0523 8.83331 27.5C8.83331 26.9477 9.28103 26.5 9.83331 26.5V28.5ZM30.2588 15.3904L40.0922 26.8487L38.5744 28.1512L28.7411 16.6929L30.2588 15.3904ZM40.0922 28.1512L30.2588 39.6096L28.7411 38.3071L38.5744 26.8487L40.0922 28.1512ZM39.3333 28.5H9.83331V26.5H39.3333V28.5Z" fill="#C7CDE0"/>
</svg>
