<svg width="51" height="49" viewBox="0 0 51 49" fill="none" xmlns="http://www.w3.org/2000/svg">
<path fill-rule="evenodd" clip-rule="evenodd" d="M25.5 42.875C36.0624 42.875 44.625 34.6482 44.625 24.5C44.625 14.3518 36.0624 6.125 25.5 6.125C14.9376 6.125 6.375 14.3518 6.375 24.5C6.375 34.6482 14.9376 42.875 25.5 42.875ZM26.5 13.2708C26.5 12.7185 26.0523 12.2708 25.5 12.2708C24.9477 12.2708 24.5 12.7185 24.5 13.2708V24.25C24.5 24.9404 25.0596 25.5 25.75 25.5H32.9375C33.4898 25.5 33.9375 25.0523 33.9375 24.5C33.9375 23.9477 33.4898 23.5 32.9375 23.5H26.5V13.2708Z" fill="#212121"/>
</svg>
