<svg width="75" height="76" viewBox="0 0 75 76" fill="none" xmlns="http://www.w3.org/2000/svg">
<g filter="url(#filter0_d_2_35)">
<path d="M9.375 37.625C9.375 22.092 21.967 9.5 37.5 9.5C53.033 9.5 65.625 22.092 65.625 37.625V38.375C65.625 53.908 53.033 66.5 37.5 66.5C21.967 66.5 9.375 53.908 9.375 38.375V37.625Z" fill="#7E869E" fill-opacity="0.25"/>
<ellipse cx="37.5" cy="31.6667" rx="12.5" ry="12.6667" fill="#222222"/>
<path fill-rule="evenodd" clip-rule="evenodd" d="M58.6136 61.5119C58.6431 61.6063 58.6132 61.7092 58.5376 61.7731C56.6079 63.4048 54.3621 64.6768 51.8987 65.4906C48.8431 66.5 45.0621 66.5 37.5001 66.5C29.938 66.5 26.157 66.5 23.1014 65.4906C20.6382 64.6768 18.3925 63.4049 16.4628 61.7734C16.3873 61.7095 16.3573 61.6066 16.3868 61.5121C18.9091 53.4383 27.4063 47.5 37.5003 47.5C47.5942 47.5 56.0913 53.4382 58.6136 61.5119Z" fill="#222222"/>
</g>
<defs>
<filter id="filter0_d_2_35" x="-4" y="0" width="83" height="84" filterUnits="userSpaceOnUse" color-interpolation-filters="sRGB">
<feFlood flood-opacity="0" result="BackgroundImageFix"/>
<feColorMatrix in="SourceAlpha" type="matrix" values="0 0 0 0 0 0 0 0 0 0 0 0 0 0 0 0 0 0 127 0" result="hardAlpha"/>
<feOffset dy="4"/>
<feGaussianBlur stdDeviation="2"/>
<feComposite in2="hardAlpha" operator="out"/>
<feColorMatrix type="matrix" values="0 0 0 0 0 0 0 0 0 0 0 0 0 0 0 0 0 0 0.25 0"/>
<feBlend mode="normal" in2="BackgroundImageFix" result="effect1_dropShadow_2_35"/>
<feBlend mode="normal" in="SourceGraphic" in2="effect1_dropShadow_2_35" result="shape"/>
</filter>
</defs>
</svg>
